# xmcd
#
# Track frame offsets:
#	150
#	67512
#	91400
#	107000
#	134425
#	159950
#	176525
#	204025
#	227700
#
# Disc length: 3674 seconds
#
# Revision: 1
# Processed by: cddbd v1.4PL0 Copyright (c) Steve Scherf et al.
# Submitted via: EasyCDDAExtractor 5.1.0
#
DISCID=630e5809
DTITLE=詹永明 - 神笛
DYEAR=1900
DGENRE=國樂
TTITLE0=秋敘
TTITLE1=春滿水鄉
TTITLE2=春耕時節
TTITLE3=巢湖泛舟
TTITLE4=平湖秋月
TTITLE5=掛紅燈
TTITLE6=妝台秋思
TTITLE7=歡樂歌
TTITLE8=思
EXTD=
EXTT0=
EXTT1=
EXTT2=
EXTT3=
EXTT4=
EXTT5=
EXTT6=
EXTT7=
EXTT8=
PLAYORDER=
